<svg width="100" height="100" viewBox="0 0 100 100" fill="none" xmlns="http://www.w3.org/2000/svg">
<rect width="100" height="100" rx="25" fill="#F51E46"/>
<path d="M56.6867 20H45.3356L42.4449 33.8318H34.0196C27.6037 34.2197 22.2102 37.2636 17.8389 42.9634C13.4911 48.6334 11.2115 55.9 11 64.763C11.1645 68.9111 12.3043 72.4623 14.4195 75.4166C16.5581 78.371 19.9658 79.8929 24.6426 79.9825H44.7715L47.2392 67.986H29.5426C26.6754 67.8965 24.7131 66.7625 23.6555 64.584C22.6214 62.4055 22.3159 59.9436 22.739 57.1981C24.3606 50.0658 27.6978 46.5296 32.7506 46.5892H39.8715L36.6635 63.7335H48.0147L56.6867 20Z" fill="white"/>
<path d="M49.2133 79.9825L51.2227 67.5383H69.8005C71.7747 67.7472 72.9615 66.9713 73.361 65.2107C73.408 63.2709 72.2682 62.3906 69.9415 62.5696H64.7242C61.105 62.4801 58.3318 61.0029 56.4047 58.1381C54.5011 55.2733 53.9136 51.3192 54.6421 46.2759C56.7337 37.562 62.0098 33.5184 70.4703 34.1451H90L87.9201 46.0969H68.7077C67.2506 46.0073 66.4163 46.6788 66.2048 48.1112C66.1108 49.2153 66.4163 49.9465 67.1214 50.3046C67.8499 50.6627 68.837 50.797 70.0825 50.7074L74.7711 50.5284C79.1658 50.7074 82.0683 52.2891 83.4784 55.2733C84.9119 58.2276 85.2997 62.1817 84.6417 67.1355C83.1846 76.0284 78.355 80.3107 70.1531 79.9825H49.2133Z" fill="white"/>
</svg>
