<svg width="79" height="60" viewBox="0 0 79 60" fill="none" xmlns="http://www.w3.org/2000/svg">
<path d="M45.6867 0H34.3356L31.4449 13.8318H23.0196C16.6037 14.2197 11.2102 17.2636 6.83891 22.9634C2.49115 28.6334 0.211513 35.9 0 44.763C0.16451 48.9111 1.30433 52.4623 3.41946 55.4166C5.55808 58.371 8.96579 59.8929 13.6426 59.9825H33.7715L36.2392 47.986H18.5426C15.6754 47.8965 13.7131 46.7625 12.6555 44.584C11.6214 42.4055 11.3159 39.9436 11.739 37.1981C13.3606 30.0658 16.6978 26.5296 21.7506 26.5892H28.8715L25.6635 43.7335H37.0147L45.6867 0Z" fill="#F51E46"/>
<path d="M38.2133 59.9825L40.2227 47.5383H58.8005C60.7747 47.7472 61.9615 46.9713 62.361 45.2107C62.408 43.2709 61.2682 42.3906 58.9415 42.5696H53.7242C50.105 42.4801 47.3318 41.0029 45.4047 38.1381C43.5011 35.2733 42.9136 31.3192 43.6421 26.2759C45.7337 17.562 51.0098 13.5184 59.4703 14.1451H79L76.9201 26.0969H57.7077C56.2506 26.0073 55.4163 26.6788 55.2048 28.1112C55.1108 29.2153 55.4163 29.9465 56.1214 30.3046C56.8499 30.6627 57.837 30.797 59.0825 30.7074L63.7711 30.5284C68.1658 30.7074 71.0683 32.2891 72.4784 35.2733C73.9119 38.2276 74.2997 42.1817 73.6417 47.1355C72.1846 56.0284 67.355 60.3107 59.1531 59.9825H38.2133Z" fill="#F51E46"/>
</svg>
