<svg width="295" height="50" viewBox="0 0 295 50" fill="none" xmlns="http://www.w3.org/2000/svg">
<path d="M154.968 38.9453C154.968 40.7266 154.628 42.2969 153.948 43.6562C153.292 45.0156 152.355 46.1523 151.136 47.0664C149.917 47.9805 148.476 48.6602 146.812 49.1055C145.148 49.5742 143.343 49.8086 141.398 49.8086C140.226 49.8086 139.101 49.7148 138.023 49.5273C136.968 49.3633 136.019 49.1523 135.175 48.8945C134.331 48.6133 133.628 48.332 133.066 48.0508C132.503 47.7695 132.093 47.5117 131.835 47.2773C131.577 47.0195 131.378 46.6328 131.237 46.1172C131.097 45.5781 131.027 44.793 131.027 43.7617C131.027 43.082 131.05 42.543 131.097 42.1445C131.144 41.7227 131.214 41.3945 131.308 41.1602C131.402 40.9023 131.519 40.7383 131.659 40.668C131.8 40.5742 131.976 40.5273 132.187 40.5273C132.445 40.5273 132.82 40.6797 133.312 40.9844C133.827 41.2656 134.46 41.582 135.21 41.9336C135.96 42.2852 136.827 42.6133 137.812 42.918C138.82 43.2227 139.956 43.375 141.222 43.375C142.019 43.375 142.722 43.293 143.331 43.1289C143.964 42.9648 144.503 42.7305 144.948 42.4258C145.417 42.1211 145.769 41.7344 146.003 41.2656C146.237 40.7969 146.355 40.2578 146.355 39.6484C146.355 38.9453 146.132 38.3477 145.687 37.8555C145.265 37.3398 144.691 36.8945 143.964 36.5195C143.261 36.1445 142.452 35.793 141.538 35.4648C140.648 35.1367 139.722 34.7734 138.761 34.375C137.823 33.9766 136.898 33.5195 135.984 33.0039C135.093 32.4883 134.284 31.8555 133.558 31.1055C132.855 30.3555 132.28 29.4531 131.835 28.3984C131.413 27.3438 131.202 26.0781 131.202 24.6016C131.202 23.1016 131.495 21.7305 132.081 20.4883C132.667 19.2227 133.511 18.1445 134.612 17.2539C135.714 16.3633 137.05 15.6719 138.62 15.1797C140.214 14.6875 141.995 14.4414 143.964 14.4414C144.948 14.4414 145.898 14.5117 146.812 14.6523C147.749 14.793 148.593 14.9688 149.343 15.1797C150.093 15.3906 150.726 15.625 151.241 15.8828C151.757 16.1172 152.12 16.3281 152.331 16.5156C152.566 16.6797 152.73 16.8555 152.823 17.043C152.917 17.207 152.987 17.418 153.034 17.6758C153.081 17.9102 153.116 18.2148 153.14 18.5898C153.187 18.9414 153.21 19.3867 153.21 19.9258C153.21 20.5586 153.187 21.0742 153.14 21.4727C153.116 21.8711 153.058 22.1875 152.964 22.4219C152.894 22.6562 152.788 22.8203 152.648 22.9141C152.507 22.9844 152.343 23.0195 152.155 23.0195C151.945 23.0195 151.616 22.9023 151.171 22.668C150.726 22.4102 150.163 22.1406 149.484 21.8594C148.827 21.5781 148.054 21.3203 147.163 21.0859C146.296 20.8281 145.3 20.6992 144.175 20.6992C143.378 20.6992 142.687 20.7812 142.101 20.9453C141.515 21.1094 141.034 21.3438 140.659 21.6484C140.284 21.9531 140.003 22.3164 139.816 22.7383C139.628 23.1367 139.534 23.5703 139.534 24.0391C139.534 24.7656 139.757 25.375 140.202 25.8672C140.648 26.3594 141.234 26.793 141.96 27.168C142.687 27.543 143.507 27.8945 144.421 28.2227C145.359 28.5508 146.296 28.9141 147.234 29.3125C148.195 29.6875 149.132 30.1328 150.046 30.6484C150.984 31.1641 151.816 31.7969 152.542 32.5469C153.269 33.2969 153.855 34.1992 154.3 35.2539C154.745 36.2852 154.968 37.5156 154.968 38.9453Z" fill="white"/>
<path d="M175.766 44.7109C175.766 45.7422 175.696 46.5391 175.555 47.1016C175.438 47.6406 175.274 48.0273 175.063 48.2617C174.852 48.4727 174.536 48.6719 174.114 48.8594C173.716 49.0234 173.235 49.1641 172.673 49.2812C172.134 49.4219 171.536 49.5273 170.88 49.5977C170.247 49.668 169.602 49.7031 168.946 49.7031C167.188 49.7031 165.665 49.4805 164.376 49.0352C163.087 48.5898 162.02 47.9102 161.177 46.9961C160.333 46.0586 159.712 44.8867 159.313 43.4805C158.915 42.0742 158.716 40.4102 158.716 38.4883V22.4219H154.954C154.509 22.4219 154.169 22.1523 153.934 21.6133C153.7 21.0508 153.583 20.125 153.583 18.8359C153.583 18.1562 153.606 17.582 153.653 17.1133C153.723 16.6445 153.817 16.2812 153.934 16.0234C154.052 15.7422 154.192 15.543 154.356 15.4258C154.544 15.3086 154.755 15.25 154.989 15.25H158.716V8.25391C158.716 8.01953 158.774 7.80859 158.891 7.62109C159.032 7.43359 159.266 7.28125 159.595 7.16406C159.946 7.02344 160.403 6.92969 160.966 6.88281C161.552 6.8125 162.266 6.77734 163.11 6.77734C163.977 6.77734 164.692 6.8125 165.255 6.88281C165.841 6.92969 166.298 7.02344 166.626 7.16406C166.954 7.28125 167.188 7.43359 167.329 7.62109C167.47 7.80859 167.54 8.01953 167.54 8.25391V15.25H174.36C174.595 15.25 174.794 15.3086 174.958 15.4258C175.145 15.543 175.298 15.7422 175.415 16.0234C175.532 16.2812 175.614 16.6445 175.661 17.1133C175.731 17.582 175.766 18.1562 175.766 18.8359C175.766 20.125 175.649 21.0508 175.415 21.6133C175.18 22.1523 174.841 22.4219 174.395 22.4219H167.54V37.1523C167.54 38.8633 167.809 40.1523 168.348 41.0195C168.887 41.8633 169.848 42.2852 171.231 42.2852C171.7 42.2852 172.122 42.25 172.497 42.1797C172.872 42.0859 173.2 41.9922 173.481 41.8984C173.786 41.7812 174.032 41.6875 174.22 41.6172C174.43 41.5234 174.618 41.4766 174.782 41.4766C174.923 41.4766 175.052 41.5234 175.169 41.6172C175.309 41.6875 175.415 41.8516 175.485 42.1094C175.555 42.3438 175.614 42.6719 175.661 43.0938C175.731 43.5156 175.766 44.0547 175.766 44.7109Z" fill="white"/>
<path d="M208.307 47.8047C208.307 48.0391 208.248 48.25 208.131 48.4375C208.014 48.6016 207.803 48.7422 207.498 48.8594C207.217 48.9766 206.83 49.0586 206.338 49.1055C205.87 49.1758 205.272 49.2109 204.545 49.2109C203.772 49.2109 203.139 49.1758 202.647 49.1055C202.178 49.0586 201.803 48.9766 201.522 48.8594C201.241 48.7422 201.041 48.6016 200.924 48.4375C200.807 48.25 200.748 48.0391 200.748 47.8047V44.1836C199.014 46.0586 197.245 47.4648 195.44 48.4023C193.659 49.3398 191.807 49.8086 189.885 49.8086C187.729 49.8086 185.912 49.457 184.436 48.7539C182.983 48.0508 181.799 47.0898 180.885 45.8711C179.995 44.6523 179.35 43.2461 178.952 41.6523C178.577 40.0352 178.389 38.0312 178.389 35.6406V16.4453C178.389 16.2109 178.448 16.0117 178.565 15.8477C178.705 15.6602 178.94 15.5078 179.268 15.3906C179.62 15.2734 180.077 15.1914 180.639 15.1445C181.225 15.0742 181.94 15.0391 182.784 15.0391C183.651 15.0391 184.366 15.0742 184.928 15.1445C185.491 15.1914 185.936 15.2734 186.264 15.3906C186.616 15.5078 186.862 15.6602 187.002 15.8477C187.143 16.0117 187.213 16.2109 187.213 16.4453V34.1641C187.213 35.8047 187.319 37.0586 187.53 37.9258C187.741 38.793 188.057 39.543 188.479 40.1758C188.924 40.7852 189.475 41.2656 190.131 41.6172C190.811 41.9453 191.596 42.1094 192.487 42.1094C193.612 42.1094 194.737 41.6992 195.862 40.8789C197.01 40.0586 198.229 38.8633 199.518 37.293V16.4453C199.518 16.2109 199.577 16.0117 199.694 15.8477C199.834 15.6602 200.069 15.5078 200.397 15.3906C200.748 15.2734 201.205 15.1914 201.768 15.1445C202.33 15.0742 203.045 15.0391 203.912 15.0391C204.78 15.0391 205.495 15.0742 206.057 15.1445C206.62 15.1914 207.065 15.2734 207.393 15.3906C207.721 15.5078 207.955 15.6602 208.096 15.8477C208.237 16.0117 208.307 16.2109 208.307 16.4453V47.8047Z" fill="white"/>
<path d="M243.379 47.8047C243.379 48.0625 243.32 48.2852 243.203 48.4727C243.086 48.6367 242.887 48.7773 242.605 48.8945C242.324 49.0117 241.937 49.0938 241.445 49.1406C240.977 49.1875 240.391 49.2109 239.687 49.2109C238.937 49.2109 238.328 49.1875 237.859 49.1406C237.391 49.0938 237.004 49.0117 236.699 48.8945C236.418 48.7773 236.207 48.6367 236.066 48.4727C235.949 48.2852 235.891 48.0625 235.891 47.8047V44.3242C234.273 46.0586 232.574 47.4062 230.793 48.3672C229.035 49.3281 227.078 49.8086 224.922 49.8086C222.531 49.8086 220.504 49.3516 218.84 48.4375C217.199 47.5 215.852 46.2461 214.797 44.6758C213.766 43.1055 213.016 41.2773 212.547 39.1914C212.078 37.082 211.844 34.8672 211.844 32.5469C211.844 29.7578 212.137 27.25 212.723 25.0234C213.332 22.7969 214.211 20.8984 215.359 19.3281C216.508 17.7578 217.937 16.5508 219.648 15.707C221.359 14.8633 223.328 14.4414 225.555 14.4414C227.312 14.4414 228.906 14.8047 230.336 15.5312C231.766 16.2344 233.184 17.2773 234.59 18.6602V1.67969C234.59 1.44531 234.648 1.23438 234.766 1.04688C234.906 0.859375 235.141 0.707031 235.469 0.589844C235.82 0.449219 236.277 0.34375 236.84 0.273438C237.402 0.203125 238.117 0.167969 238.984 0.167969C239.852 0.167969 240.566 0.203125 241.129 0.273438C241.691 0.34375 242.137 0.449219 242.465 0.589844C242.793 0.707031 243.027 0.859375 243.168 1.04688C243.309 1.23438 243.379 1.44531 243.379 1.67969V47.8047ZM234.59 26.8516C233.324 25.2578 232.105 24.0391 230.934 23.1953C229.785 22.3516 228.578 21.9297 227.312 21.9297C226.164 21.9297 225.168 22.2227 224.324 22.8086C223.504 23.3711 222.836 24.1328 222.32 25.0938C221.828 26.0547 221.453 27.1328 221.195 28.3281C220.961 29.5 220.844 30.707 220.844 31.9492C220.844 33.2617 220.949 34.5391 221.16 35.7812C221.371 37.0234 221.711 38.1367 222.18 39.1211C222.672 40.082 223.316 40.8555 224.113 41.4414C224.91 42.0273 225.918 42.3203 227.137 42.3203C227.746 42.3203 228.332 42.2383 228.895 42.0742C229.48 41.8867 230.066 41.5938 230.652 41.1953C231.262 40.7969 231.883 40.2812 232.516 39.6484C233.148 38.9922 233.84 38.1953 234.59 37.2578V26.8516Z" fill="white"/>
<path d="M257.568 47.8047C257.568 48.0391 257.498 48.25 257.357 48.4375C257.216 48.6016 256.97 48.7422 256.619 48.8594C256.291 48.9766 255.845 49.0586 255.283 49.1055C254.72 49.1758 254.005 49.2109 253.138 49.2109C252.271 49.2109 251.556 49.1758 250.994 49.1055C250.431 49.0586 249.974 48.9766 249.623 48.8594C249.295 48.7422 249.06 48.6016 248.92 48.4375C248.779 48.25 248.709 48.0391 248.709 47.8047V16.5156C248.709 16.2812 248.779 16.082 248.92 15.918C249.06 15.7305 249.295 15.5781 249.623 15.4609C249.974 15.3203 250.431 15.2148 250.994 15.1445C251.556 15.0742 252.271 15.0391 253.138 15.0391C254.005 15.0391 254.72 15.0742 255.283 15.1445C255.845 15.2148 256.291 15.3203 256.619 15.4609C256.97 15.5781 257.216 15.7305 257.357 15.918C257.498 16.082 257.568 16.2812 257.568 16.5156V47.8047ZM258.236 5.82812C258.236 7.60938 257.873 8.83984 257.146 9.51953C256.42 10.1992 255.072 10.5391 253.103 10.5391C251.111 10.5391 249.763 10.2109 249.06 9.55469C248.38 8.89844 248.041 7.71484 248.041 6.00391C248.041 4.22266 248.392 2.99219 249.095 2.3125C249.822 1.60938 251.181 1.25781 253.173 1.25781C255.142 1.25781 256.478 1.59766 257.181 2.27734C257.884 2.93359 258.236 4.11719 258.236 5.82812Z" fill="white"/>
<path d="M294.538 31.8086C294.538 34.4805 294.187 36.918 293.484 39.1211C292.78 41.3242 291.714 43.2227 290.284 44.8164C288.855 46.4102 287.062 47.6406 284.905 48.5078C282.749 49.375 280.23 49.8086 277.347 49.8086C274.558 49.8086 272.132 49.4219 270.07 48.6484C268.007 47.875 266.296 46.75 264.937 45.2734C263.577 43.7969 262.57 41.9805 261.913 39.8242C261.257 37.668 260.929 35.207 260.929 32.4414C260.929 29.7695 261.28 27.332 261.984 25.1289C262.71 22.9023 263.788 21.0039 265.218 19.4336C266.648 17.8398 268.429 16.6094 270.562 15.7422C272.718 14.875 275.237 14.4414 278.12 14.4414C280.933 14.4414 283.37 14.8281 285.433 15.6016C287.495 16.3516 289.195 17.4648 290.53 18.9414C291.89 20.418 292.898 22.2344 293.554 24.3906C294.21 26.5469 294.538 29.0195 294.538 31.8086ZM285.433 32.1602C285.433 30.6133 285.304 29.1953 285.046 27.9062C284.812 26.5938 284.402 25.457 283.816 24.4961C283.23 23.5352 282.445 22.7852 281.46 22.2461C280.499 21.707 279.28 21.4375 277.804 21.4375C276.491 21.4375 275.343 21.6836 274.359 22.1758C273.374 22.6445 272.566 23.3477 271.933 24.2852C271.3 25.1992 270.82 26.3125 270.491 27.625C270.187 28.9141 270.034 30.3906 270.034 32.0547C270.034 33.6016 270.163 35.0312 270.421 36.3438C270.679 37.6328 271.089 38.7578 271.652 39.7188C272.237 40.6797 273.023 41.4297 274.007 41.9688C274.991 42.4844 276.21 42.7422 277.663 42.7422C278.999 42.7422 280.159 42.5078 281.144 42.0391C282.128 41.5469 282.937 40.8438 283.57 39.9297C284.202 39.0156 284.671 37.9141 284.976 36.625C285.28 35.3125 285.433 33.8242 285.433 32.1602Z" fill="white"/>
<path d="M258.67 5.81909C258.67 7.82556 258.263 9.174 257.448 9.8644C256.658 10.5548 255.226 10.9 253.151 10.9C251.077 10.9 249.645 10.5656 248.855 9.89676C248.065 9.20636 247.67 7.91186 247.67 6.01326C247.67 3.98522 248.065 2.62599 248.855 1.93559C249.67 1.24519 251.127 0.899994 253.226 0.899994C255.275 0.899994 256.695 1.24519 257.485 1.93559C258.275 2.60442 258.67 3.89892 258.67 5.81909Z" fill="#F51E46"/>
<path d="M31.5352 47.6367C31.5352 47.8945 31.4766 48.1172 31.3594 48.3047C31.2422 48.4688 31.043 48.6094 30.7617 48.7266C30.4805 48.8438 30.0938 48.9258 29.6016 48.9727C29.1328 49.0195 28.5469 49.043 27.8438 49.043C27.0938 49.043 26.4844 49.0195 26.0156 48.9727C25.5469 48.9258 25.1602 48.8438 24.8555 48.7266C24.5742 48.6094 24.3633 48.4688 24.2227 48.3047C24.1055 48.1172 24.0469 47.8945 24.0469 47.6367V44.1562C22.4297 45.8906 20.7305 47.2383 18.9492 48.1992C17.1914 49.1602 15.2344 49.6406 13.0781 49.6406C10.6875 49.6406 8.66016 49.1836 6.99609 48.2695C5.35547 47.332 4.00781 46.0781 2.95312 44.5078C1.92188 42.9375 1.17188 41.1094 0.703125 39.0234C0.234375 36.9141 0 34.6992 0 32.3789C0 29.5898 0.292969 27.082 0.878906 24.8555C1.48828 22.6289 2.36719 20.7305 3.51562 19.1602C4.66406 17.5898 6.09375 16.3828 7.80469 15.5391C9.51562 14.6953 11.4844 14.2734 13.7109 14.2734C15.4688 14.2734 17.0625 14.6367 18.4922 15.3633C19.9219 16.0664 21.3398 17.1094 22.7461 18.4922V1.51172C22.7461 1.27734 22.8047 1.06641 22.9219 0.878906C23.0625 0.691406 23.2969 0.539062 23.625 0.421875C23.9766 0.28125 24.4336 0.175781 24.9961 0.105469C25.5586 0.0351562 26.2734 0 27.1406 0C28.0078 0 28.7227 0.0351562 29.2852 0.105469C29.8477 0.175781 30.293 0.28125 30.6211 0.421875C30.9492 0.539062 31.1836 0.691406 31.3242 0.878906C31.4648 1.06641 31.5352 1.27734 31.5352 1.51172V47.6367ZM22.7461 26.6836C21.4805 25.0898 20.2617 23.8711 19.0898 23.0273C17.9414 22.1836 16.7344 21.7617 15.4688 21.7617C14.3203 21.7617 13.3242 22.0547 12.4805 22.6406C11.6602 23.2031 10.9922 23.9648 10.4766 24.9258C9.98438 25.8867 9.60938 26.9648 9.35156 28.1602C9.11719 29.332 9 30.5391 9 31.7812C9 33.0938 9.10547 34.3711 9.31641 35.6133C9.52734 36.8555 9.86719 37.9688 10.3359 38.9531C10.8281 39.9141 11.4727 40.6875 12.2695 41.2734C13.0664 41.8594 14.0742 42.1523 15.293 42.1523C15.9023 42.1523 16.4883 42.0703 17.0508 41.9062C17.6367 41.7188 18.2227 41.4258 18.8086 41.0273C19.418 40.6289 20.0391 40.1133 20.6719 39.4805C21.3047 38.8242 21.9961 38.0273 22.7461 37.0898V26.6836Z" fill="#F51E46"/>
<path d="M65.8336 31.043C65.8336 32.1211 65.5875 32.918 65.0953 33.4336C64.6266 33.9492 63.9703 34.207 63.1266 34.207H44.0367C44.0367 35.543 44.1891 36.7617 44.4938 37.8633C44.8219 38.9414 45.3258 39.8672 46.0055 40.6406C46.7086 41.3906 47.5992 41.9648 48.6773 42.3633C49.7789 42.7617 51.0914 42.9609 52.6148 42.9609C54.1617 42.9609 55.5211 42.8555 56.693 42.6445C57.8648 42.4102 58.8727 42.1641 59.7164 41.9062C60.5836 41.625 61.2984 41.3789 61.8609 41.168C62.4234 40.9336 62.8805 40.8164 63.232 40.8164C63.443 40.8164 63.6188 40.8633 63.7594 40.957C63.9 41.0273 64.0172 41.168 64.1109 41.3789C64.2047 41.5898 64.2633 41.8945 64.2867 42.293C64.3336 42.668 64.357 43.1484 64.357 43.7344C64.357 44.25 64.3453 44.6953 64.3219 45.0703C64.2984 45.4219 64.2633 45.7266 64.2164 45.9844C64.1695 46.2422 64.0992 46.4648 64.0055 46.6523C63.9117 46.8164 63.7828 46.9805 63.6188 47.1445C63.4781 47.3086 63.068 47.5312 62.3883 47.8125C61.7086 48.0938 60.8414 48.375 59.7867 48.6562C58.732 48.9141 57.525 49.1367 56.1656 49.3242C54.8063 49.5352 53.3531 49.6406 51.8063 49.6406C49.0172 49.6406 46.568 49.2891 44.4586 48.5859C42.3727 47.8828 40.6266 46.8164 39.2203 45.3867C37.8141 43.957 36.7594 42.1523 36.0563 39.9727C35.3766 37.793 35.0367 35.2383 35.0367 32.3086C35.0367 29.5195 35.4 27.0117 36.1266 24.7852C36.8531 22.5352 37.9078 20.6367 39.2906 19.0898C40.6734 17.5195 42.3492 16.3242 44.318 15.5039C46.3102 14.6836 48.5484 14.2734 51.0328 14.2734C53.6578 14.2734 55.8961 14.6602 57.7477 15.4336C59.6227 16.207 61.1578 17.2852 62.3531 18.668C63.5484 20.0273 64.4273 21.6445 64.9898 23.5195C65.5523 25.3945 65.8336 27.4336 65.8336 29.6367V31.043ZM57.2555 28.5117C57.3258 26.0273 56.8219 24.082 55.7438 22.6758C54.6891 21.2461 53.0484 20.5312 50.8219 20.5312C49.6969 20.5312 48.7125 20.7422 47.8688 21.1641C47.0484 21.5859 46.357 22.1602 45.7945 22.8867C45.2555 23.5898 44.8336 24.4336 44.5289 25.418C44.2477 26.3789 44.0836 27.4102 44.0367 28.5117H57.2555Z" fill="#F51E46"/>
<path d="M87.6164 44.543C87.6164 45.5742 87.5461 46.3711 87.4055 46.9336C87.2883 47.4727 87.1242 47.8594 86.9133 48.0938C86.7023 48.3047 86.3859 48.5039 85.9641 48.6914C85.5656 48.8555 85.0852 48.9961 84.5227 49.1133C83.9836 49.2539 83.3859 49.3594 82.7297 49.4297C82.0969 49.5 81.4523 49.5352 80.7961 49.5352C79.0383 49.5352 77.5148 49.3125 76.2258 48.8672C74.9367 48.4219 73.8703 47.7422 73.0266 46.8281C72.1828 45.8906 71.5617 44.7188 71.1633 43.3125C70.7648 41.9062 70.5656 40.2422 70.5656 38.3203V22.2539H66.8039C66.3586 22.2539 66.0188 21.9844 65.7844 21.4453C65.55 20.8828 65.4328 19.957 65.4328 18.668C65.4328 17.9883 65.4563 17.4141 65.5031 16.9453C65.5734 16.4766 65.6672 16.1133 65.7844 15.8555C65.9016 15.5742 66.0422 15.375 66.2063 15.2578C66.3938 15.1406 66.6047 15.082 66.8391 15.082H70.5656V8.08594C70.5656 7.85156 70.6242 7.64062 70.7414 7.45312C70.882 7.26562 71.1164 7.11328 71.4445 6.99609C71.7961 6.85547 72.2531 6.76172 72.8156 6.71484C73.4016 6.64453 74.1164 6.60938 74.9602 6.60938C75.8273 6.60938 76.5422 6.64453 77.1047 6.71484C77.6906 6.76172 78.1477 6.85547 78.4758 6.99609C78.8039 7.11328 79.0383 7.26562 79.1789 7.45312C79.3195 7.64062 79.3898 7.85156 79.3898 8.08594V15.082H86.2102C86.4445 15.082 86.6438 15.1406 86.8078 15.2578C86.9953 15.375 87.1477 15.5742 87.2648 15.8555C87.382 16.1133 87.4641 16.4766 87.5109 16.9453C87.5813 17.4141 87.6164 17.9883 87.6164 18.668C87.6164 19.957 87.4992 20.8828 87.2648 21.4453C87.0305 21.9844 86.6906 22.2539 86.2453 22.2539H79.3898V36.9844C79.3898 38.6953 79.6594 39.9844 80.1984 40.8516C80.7375 41.6953 81.6984 42.1172 83.0813 42.1172C83.55 42.1172 83.9719 42.082 84.3469 42.0117C84.7219 41.918 85.05 41.8242 85.3313 41.7305C85.6359 41.6133 85.882 41.5195 86.0695 41.4492C86.2805 41.3555 86.468 41.3086 86.632 41.3086C86.7727 41.3086 86.9016 41.3555 87.0188 41.4492C87.1594 41.5195 87.2648 41.6836 87.3352 41.9414C87.4055 42.1758 87.4641 42.5039 87.5109 42.9258C87.5813 43.3477 87.6164 43.8867 87.6164 44.543Z" fill="#F51E46"/>
<path d="M116.43 47.7422C116.43 48.0703 116.313 48.3281 116.079 48.5156C115.845 48.7031 115.47 48.832 114.954 48.9023C114.462 48.9961 113.723 49.043 112.739 49.043C111.684 49.043 110.911 48.9961 110.419 48.9023C109.95 48.832 109.61 48.7031 109.399 48.5156C109.212 48.3281 109.118 48.0703 109.118 47.7422V45.2461C107.829 46.6289 106.352 47.707 104.688 48.4805C103.048 49.2539 101.22 49.6406 99.2039 49.6406C97.5398 49.6406 96.0047 49.418 94.5984 48.9727C93.2156 48.5508 92.0086 47.918 90.9773 47.0742C89.9695 46.207 89.1844 45.1406 88.6219 43.875C88.0594 42.6094 87.7781 41.1328 87.7781 39.4453C87.7781 37.6172 88.1297 36.0352 88.8328 34.6992C89.5594 33.3398 90.6258 32.2266 92.032 31.3594C93.4617 30.4688 95.2313 29.8125 97.3406 29.3906C99.45 28.9688 101.899 28.7578 104.688 28.7578H107.747V26.8594C107.747 25.875 107.641 25.0195 107.43 24.293C107.243 23.543 106.915 22.9219 106.446 22.4297C106.001 21.9375 105.391 21.5742 104.618 21.3398C103.868 21.1055 102.93 20.9883 101.805 20.9883C100.329 20.9883 99.0047 21.1523 97.8328 21.4805C96.6844 21.8086 95.6648 22.1719 94.7742 22.5703C93.8836 22.9688 93.1336 23.332 92.5242 23.6602C91.9383 23.9883 91.4578 24.1523 91.0828 24.1523C90.825 24.1523 90.5906 24.0703 90.3797 23.9062C90.1922 23.7422 90.0281 23.5078 89.8875 23.2031C89.7703 22.8984 89.6766 22.5234 89.6063 22.0781C89.5359 21.6328 89.5008 21.1406 89.5008 20.6016C89.5008 19.875 89.5594 19.3008 89.6766 18.8789C89.7938 18.457 90.0164 18.082 90.3445 17.7539C90.6727 17.4023 91.2469 17.0273 92.0672 16.6289C92.8875 16.207 93.8484 15.8203 94.95 15.4688C96.0516 15.1172 97.2469 14.8359 98.5359 14.625C99.8484 14.3906 101.196 14.2734 102.579 14.2734C105.04 14.2734 107.138 14.5195 108.872 15.0117C110.63 15.4805 112.071 16.2188 113.196 17.2266C114.321 18.2109 115.141 19.4883 115.657 21.0586C116.173 22.6289 116.43 24.4922 116.43 26.6484V47.7422ZM107.747 34.3125H104.372C102.942 34.3125 101.723 34.418 100.716 34.6289C99.7078 34.8398 98.8875 35.1562 98.2547 35.5781C97.6219 36 97.1531 36.5156 96.8484 37.125C96.5672 37.7109 96.4266 38.3906 96.4266 39.1641C96.4266 40.4766 96.8367 41.5078 97.657 42.2578C98.5008 43.0078 99.6609 43.3828 101.138 43.3828C102.38 43.3828 103.516 43.0664 104.548 42.4336C105.602 41.8008 106.669 40.875 107.747 39.6562V34.3125Z" fill="#F51E46"/>
</svg>
