<svg width="33" height="40" viewBox="0 0 33 40" fill="none" xmlns="http://www.w3.org/2000/svg">
<path d="M1.10584 10.8436L13.8608 19.9003C14.5453 20.3862 15.423 20.6289 16.3016 20.6289C17.1798 20.6289 18.0577 20.3858 18.7424 19.9003L31.4969 10.8436C32.2508 10.3089 32.6528 9.56835 32.6001 8.81287C32.5468 8.05739 32.0456 7.38101 31.2247 6.95706L18.8211 0.547995C17.409 -0.182665 15.1948 -0.182665 13.7819 0.547995L1.37845 6.95706C0.558808 7.38081 0.0581822 8.05739 0.00491118 8.81367C-0.048158 9.56915 0.353392 10.3093 1.10584 10.8436ZM2.11941 8.39073L14.5229 1.98167C14.9967 1.73691 15.6492 1.61483 16.3014 1.61483C16.954 1.61483 17.6063 1.73711 18.0799 1.98167L30.4834 8.39073C30.7877 8.54792 30.9767 8.7483 30.9895 8.92587C31.0016 9.10404 30.8426 9.32863 30.5623 9.52718L17.8073 18.5839C17.005 19.1537 15.5972 19.1537 14.7955 18.5839L2.04071 9.52738C1.76164 9.32964 1.60284 9.10485 1.61535 8.92688C1.62806 8.74769 1.81633 8.54752 2.11941 8.39073Z" fill="white"/>
<path d="M31.2243 13.4141L30.4834 14.8479C30.7876 15.0051 30.9767 15.2055 30.9894 15.3831C31.0015 15.5612 30.8425 15.7858 30.5622 15.9844L17.8073 25.0411C17.005 25.6109 15.5971 25.6109 14.7955 25.0411L2.04068 15.9844C1.76162 15.7866 1.60281 15.5619 1.61532 15.3839C1.62783 15.2049 1.8163 15.0047 2.11938 14.8479L1.37843 13.4141C0.558781 13.8378 0.0581547 14.5144 0.00488372 15.2707C-0.0483873 16.0262 0.353163 16.7663 1.10562 17.3006L13.8606 26.3573C14.545 26.8432 15.4228 27.0859 16.3014 27.0859C17.1795 27.0859 18.0575 26.8428 18.7421 26.3573L31.4967 17.3006C32.2506 16.7659 32.6525 16.0254 32.5999 15.2699C32.5466 14.5144 32.0454 13.838 31.2243 13.4141Z" fill="white"/>
<path d="M31.2243 19.8711L30.4834 21.305C30.7877 21.4622 30.9767 21.6625 30.9894 21.8401C31.0016 22.0183 30.8425 22.2429 30.5623 22.4414L17.8073 31.4981C17.005 32.0679 15.5972 32.0679 14.7955 31.4981L2.0405 22.4414C1.76143 22.2437 1.60263 22.0189 1.61514 21.8409C1.62765 21.6619 1.81612 21.4618 2.1192 21.305L1.37824 19.8711C0.558598 20.2948 0.0579716 20.9714 0.00470061 21.7277C-0.0485704 22.4832 0.35298 23.2233 1.10543 23.7577L13.8604 32.8143C14.5449 33.3002 15.4226 33.543 16.3012 33.543C17.1793 33.543 18.0573 33.2998 18.742 32.8143L31.4965 23.7577C32.2504 23.2229 32.6523 22.4824 32.5997 21.7269C32.5466 20.9714 32.0454 20.295 31.2243 19.8711Z" fill="white"/>
<path d="M31.2243 26.3281L30.4834 27.762C30.7877 27.9192 30.9767 28.1196 30.9894 28.2971C31.0016 28.4753 30.8425 28.6999 30.5623 28.8984L17.8073 37.9551C17.005 38.525 15.5972 38.525 14.7955 37.9551L2.0405 28.8984C1.76143 28.7007 1.60263 28.4759 1.61514 28.2979C1.62765 28.119 1.81612 27.9188 2.1192 27.762L1.37824 26.3281C0.558598 26.7519 0.0579716 27.4285 0.00470061 28.1847C-0.0485704 28.9402 0.35298 29.6804 1.10543 30.2147L13.8604 39.2714C14.5449 39.7573 15.4226 40 16.3012 40C17.1793 40 18.0573 39.7569 18.742 39.2714L31.4965 30.2147C32.2504 29.68 32.6523 28.9394 32.5997 28.1839C32.5466 27.4287 32.0454 26.7523 31.2243 26.3281Z" fill="white"/>
</svg>
