<svg width="15" height="15" viewBox="0 0 15 15" fill="none" xmlns="http://www.w3.org/2000/svg">
<g clip-path="url(#clip0)">
<path d="M5.51291 2.90501C5.51291 3.28301 5.51291 4.97021 5.51291 4.97021H3.99988V7.49554H5.51291V14.9999H8.62099V7.49575H10.7067C10.7067 7.49575 10.902 6.28487 10.9967 4.96089C10.7252 4.96089 8.63274 4.96089 8.63274 4.96089C8.63274 4.96089 8.63274 3.49174 8.63274 3.23422C8.63274 2.97615 8.97162 2.62901 9.30655 2.62901C9.64086 2.62901 10.3464 2.62901 11 2.62901C11 2.28519 11 1.09719 11 9.02082e-09C10.1275 9.02082e-09 9.13501 9.02082e-09 8.6975 9.02082e-09C5.43608 -0.000174363 5.51291 2.52767 5.51291 2.90501Z" fill="#F51E46"/>
</g>
<defs>
<clipPath id="clip0">
<rect width="15" height="15" fill="white"/>
</clipPath>
</defs>
</svg>
