<svg width="15" height="15" viewBox="0 0 15 15" fill="none" xmlns="http://www.w3.org/2000/svg">
<path d="M10.947 0H4.05296C1.81816 0 0 1.81816 0 4.05296V10.947C0 13.1818 1.81816 15 4.05296 15H10.947C13.1818 15 15 13.1818 15 10.947V4.05296C15 1.81816 13.1818 0 10.947 0ZM13.7882 10.947C13.7882 12.5136 12.5137 13.7882 10.947 13.7882H4.05296C2.48637 13.7882 1.21184 12.5137 1.21184 10.947V4.05296C1.21184 2.48637 2.48634 1.21184 4.05296 1.21184H10.947C12.5136 1.21184 13.7882 2.48634 13.7882 4.05296V10.947V10.947Z" fill="#F51E46"/>
<path d="M10.857 6.97689C10.7503 6.25774 10.4222 5.60595 9.90817 5.09188C9.3941 4.57783 8.7423 4.24971 8.02318 4.1431C7.69576 4.09455 7.36379 4.09455 7.0364 4.1431C6.14765 4.2749 5.36346 4.74488 4.82824 5.46649C4.29301 6.1881 4.07079 7.07498 4.2026 7.96367C4.33441 8.85238 4.80439 9.63657 5.526 10.1718C6.11182 10.6063 6.80645 10.8345 7.52267 10.8345C7.68869 10.8345 7.85592 10.8222 8.02315 10.7974C8.9119 10.6656 9.69609 10.1956 10.2313 9.47403C10.7666 8.75245 10.9888 7.86561 10.857 6.97689ZM7.8454 9.59869C7.2769 9.68312 6.70956 9.54089 6.24793 9.1985C5.7863 8.8561 5.48566 8.35443 5.40137 7.78592C5.31705 7.21742 5.45917 6.65008 5.80157 6.18845C6.14399 5.72683 6.64564 5.42618 7.21417 5.34186C7.31888 5.32634 7.42432 5.31857 7.52976 5.31857C7.6352 5.31857 7.74067 5.32634 7.84537 5.34189C8.78964 5.4819 9.51817 6.2104 9.65821 7.15469C9.83223 8.32826 9.01904 9.42467 7.8454 9.59869Z" fill="#F51E46"/>
<path d="M11.7202 3.27978C11.6074 3.16695 11.4512 3.10229 11.2917 3.10229C11.1323 3.10229 10.9761 3.16692 10.8633 3.27978C10.7504 3.39263 10.6858 3.54855 10.6858 3.70825C10.6858 3.86794 10.7504 4.02386 10.8633 4.13672C10.9761 4.24954 11.1323 4.3142 11.2917 4.3142C11.4512 4.3142 11.6074 4.24957 11.7202 4.13672C11.833 4.02386 11.8977 3.86768 11.8977 3.70825C11.8977 3.54878 11.833 3.3926 11.7202 3.27978Z" fill="#F51E46"/>
</svg>
