<svg width="15" height="15" viewBox="0 0 15 15" fill="none" xmlns="http://www.w3.org/2000/svg">
<g clip-path="url(#clip0)">
<path d="M15 9.12103V14.6666H11.785V9.49244C11.785 8.19265 11.32 7.30559 10.1563 7.30559C9.26793 7.30559 8.73927 7.9034 8.5067 8.48169C8.42188 8.68842 8.40005 8.97617 8.40005 9.26555V14.6666H5.18398C5.18398 14.6666 5.2273 5.90326 5.18398 4.99531H8.39974V6.36618C8.39322 6.37643 8.38474 6.38749 8.3786 6.39743H8.39974V6.36618C8.82698 5.70814 9.58999 4.7681 11.2979 4.7681C13.4138 4.76807 15 6.15038 15 9.12103ZM1.81984 0.333252C0.71963 0.333252 0 1.0549 0 2.0039C0 2.93222 0.69881 3.67577 1.77716 3.67577H1.79864C2.92016 3.67577 3.61764 2.93236 3.61764 2.0039C3.59651 1.0549 2.92016 0.333252 1.81984 0.333252ZM0.191006 14.6666H3.40585V4.99531H0.191006V14.6666Z" fill="#F51E46"/>
</g>
<defs>
<clipPath id="clip0">
<rect width="15" height="15" fill="white"/>
</clipPath>
</defs>
</svg>
