<svg width="31" height="29" viewBox="0 0 31 29" fill="none" xmlns="http://www.w3.org/2000/svg">
<path d="M15.8034 4.47913C15.8034 4.17828 15.5598 3.93408 15.2583 3.93408C12.112 3.93408 9.552 6.49403 9.552 9.6404C9.552 9.94125 9.79559 10.1854 10.097 10.1854C10.3984 10.1854 10.6421 9.94125 10.6421 9.6404C10.6421 7.0952 12.7132 5.02411 15.2584 5.02411C15.5598 5.02411 15.8034 4.78051 15.8034 4.47913Z" fill="#F51E46"/>
<path d="M7.26172 9.64056C7.26172 11.511 7.86617 13.2796 9.0101 14.755C9.01553 14.7621 9.02157 14.7692 9.02753 14.7763C11.4131 18.0878 10.8201 19.6629 10.8201 19.6656C10.6926 19.9381 10.8103 20.2624 11.0828 20.3905C11.1575 20.4253 11.2359 20.4422 11.3133 20.4417C11.5182 20.4417 11.7145 20.3256 11.8071 20.1278C11.9057 19.9185 12.6851 17.9678 9.88315 14.0993C9.87061 14.0825 9.85808 14.0661 9.84393 14.0509C8.86782 12.7755 8.35221 11.2517 8.35221 9.64002C8.35221 5.63522 11.6109 2.37715 15.6151 2.37715C19.6193 2.37715 22.8781 5.63522 22.8781 9.64002C22.8781 11.256 22.3593 12.7858 21.3679 14.0753C18.5643 17.9466 19.3753 19.9196 19.4767 20.1321C19.6047 20.3986 19.9192 20.5077 20.1885 20.3872C20.4577 20.2667 20.5798 19.9463 20.4658 19.6738C20.4593 19.658 19.8347 18.0512 22.2415 14.7272C23.3708 13.2578 23.9681 11.499 23.9681 9.64056C23.9681 5.03459 20.2211 1.2876 15.6151 1.2876C11.0092 1.2876 7.26172 5.0352 7.26172 9.64056Z" fill="#F51E46"/>
<path d="M20.4796 22.5402V22.0769C20.4796 21.3384 19.8785 20.7378 19.1405 20.7378H11.7959C11.0574 20.7378 10.4568 21.3384 10.4568 22.0769V22.5402C10.4568 23.2781 11.0574 23.8793 11.7959 23.8793H19.1411C19.8791 23.8793 20.4796 23.2786 20.4796 22.5402ZM11.5468 22.5402V22.0769C11.5468 21.9396 11.6585 21.8278 11.7959 21.8278H19.1411C19.2784 21.8278 19.3902 21.9395 19.3902 22.0769V22.5402C19.3902 22.6775 19.2785 22.7892 19.1411 22.7892H11.7959C11.6585 22.7892 11.5468 22.6775 11.5468 22.5402Z" fill="#F51E46"/>
<path d="M12.6783 24.7075C12.377 24.7075 12.1333 24.9517 12.1333 25.2526V26.692C12.1333 26.9056 12.2581 27.0991 12.4521 27.188L15.3892 28.5281C15.4612 28.5609 15.538 28.5772 15.6154 28.5772C15.695 28.5772 15.7746 28.5598 15.8481 28.5249L18.7934 27.1351C18.9842 27.0452 19.1057 26.8534 19.1057 26.6424V25.2532C19.1057 24.9523 18.8621 24.7081 18.5607 24.7081C18.2592 24.7081 18.0156 24.9523 18.0156 25.2532V26.2974L15.6116 27.4322L13.2233 26.3421V25.2532C13.2233 24.9511 12.9797 24.7075 12.6783 24.7075Z" fill="#F51E46"/>
<path d="M28.3126 19.4892C28.4913 19.2473 28.4396 18.906 28.1976 18.7273L24.5002 16.0011C24.2577 15.8224 23.917 15.8736 23.7383 16.1161C23.5595 16.3581 23.6113 16.6993 23.8533 16.8781L27.5506 19.6042C27.6482 19.6762 27.7616 19.7105 27.8738 19.7105C28.0406 19.711 28.2058 19.6342 28.3126 19.4892Z" fill="#F51E46"/>
<path d="M6.64856 4.19425C6.74612 4.26619 6.8595 4.30052 6.97174 4.30052C7.13903 4.30052 7.30364 4.22368 7.41105 4.07872C7.5898 3.83674 7.53804 3.49552 7.29606 3.31677L3.51527 0.529521C3.27329 0.350231 2.93208 0.402529 2.75332 0.644511C2.57457 0.887029 2.62579 1.22824 2.86831 1.407L6.64856 4.19425Z" fill="#F51E46"/>
<path d="M6.82025 15.8132L2.86889 18.7268C2.62691 18.9056 2.57515 19.2468 2.7539 19.4888C2.86071 19.6337 3.02585 19.7106 3.19321 19.7106C3.30545 19.7106 3.41883 19.6763 3.51639 19.6043L7.46775 16.6907C7.70973 16.5119 7.76149 16.1707 7.58274 15.9287C7.40284 15.6862 7.06223 15.635 6.82025 15.8132Z" fill="#F51E46"/>
<path d="M24.0146 3.13683C23.7727 3.31558 23.7209 3.65679 23.8997 3.89878C24.0065 4.04374 24.1716 4.12058 24.339 4.12058C24.4512 4.12058 24.5646 4.08571 24.6621 4.0143L28.1987 1.40695C28.4407 1.2282 28.4925 0.886981 28.3137 0.644999C28.135 0.403018 27.7943 0.350719 27.5518 0.530009L24.0146 3.13683Z" fill="#F51E46"/>
<path d="M30.4551 9.52246H26.2863C25.9849 9.52246 25.7412 9.76666 25.7412 10.0675C25.7412 10.3684 25.9848 10.6126 26.2863 10.6126H30.4551C30.7564 10.6126 31.0001 10.3684 31.0001 10.0675C31.0001 9.76666 30.7564 9.52246 30.4551 9.52246Z" fill="#F51E46"/>
<path d="M5.39185 10.0675C5.39185 9.76666 5.14826 9.52246 4.84681 9.52246H0.545045C0.243658 9.52246 0 9.76666 0 10.0675C0 10.3684 0.243591 10.6126 0.545045 10.6126H4.84687C5.14766 10.6125 5.39185 10.3684 5.39185 10.0675Z" fill="#F51E46"/>
</svg>
