<svg width="31" height="29" viewBox="0 0 31 29" fill="none" xmlns="http://www.w3.org/2000/svg">
<path d="M15.8034 4.05628C15.8034 3.75542 15.5598 3.51123 15.2583 3.51123C12.112 3.51123 9.552 6.07118 9.552 9.21755C9.552 9.5184 9.79559 9.76259 10.097 9.76259C10.3984 9.76259 10.6421 9.5184 10.6421 9.21755C10.6421 6.67235 12.7132 4.60125 15.2584 4.60125C15.5598 4.60125 15.8034 4.35766 15.8034 4.05628Z" fill="white"/>
<path d="M7.26172 9.21771C7.26172 11.0882 7.86617 12.8567 9.0101 14.3322C9.01553 14.3393 9.02157 14.3463 9.02753 14.3534C11.4131 17.6649 10.8201 19.2401 10.8201 19.2427C10.6926 19.5152 10.8103 19.8396 11.0828 19.9676C11.1575 20.0025 11.2359 20.0194 11.3133 20.0188C11.5182 20.0188 11.7145 19.9028 11.8071 19.7049C11.9057 19.4957 12.6851 17.545 9.88315 13.6765C9.87061 13.6596 9.85808 13.6432 9.84393 13.628C8.86782 12.3527 8.35221 10.8288 8.35221 9.21717C8.35221 5.21237 11.6109 1.9543 15.6151 1.9543C19.6193 1.9543 22.8781 5.21237 22.8781 9.21717C22.8781 10.8331 22.3593 12.363 21.3679 13.6525C18.5643 17.5237 19.3753 19.4967 19.4767 19.7093C19.6047 19.9758 19.9192 20.0848 20.1885 19.9643C20.4577 19.8438 20.5798 19.5234 20.4658 19.2509C20.4593 19.2351 19.8347 17.6284 22.2415 14.3043C23.3708 12.835 23.9681 11.0762 23.9681 9.21771C23.9681 4.61174 20.2211 0.864746 15.6151 0.864746C11.0092 0.864746 7.26172 4.61234 7.26172 9.21771Z" fill="white"/>
<path d="M20.4796 22.1173V21.6541C20.4796 20.9156 19.8785 20.3149 19.1405 20.3149H11.7959C11.0574 20.3149 10.4568 20.9156 10.4568 21.6541V22.1173C10.4568 22.8552 11.0574 23.4564 11.7959 23.4564H19.1411C19.8791 23.4564 20.4796 22.8558 20.4796 22.1173ZM11.5468 22.1173V21.6541C11.5468 21.5167 11.6585 21.405 11.7959 21.405H19.1411C19.2784 21.405 19.3902 21.5167 19.3902 21.6541V22.1173C19.3902 22.2546 19.2785 22.3664 19.1411 22.3664H11.7959C11.6585 22.3664 11.5468 22.2547 11.5468 22.1173Z" fill="white"/>
<path d="M12.6783 24.2847C12.377 24.2847 12.1333 24.5289 12.1333 24.8297V26.2691C12.1333 26.4828 12.2581 26.6763 12.4521 26.7651L15.3892 28.1053C15.4612 28.138 15.538 28.1544 15.6154 28.1544C15.695 28.1544 15.7746 28.1369 15.8481 28.1021L18.7934 26.7123C18.9842 26.6224 19.1057 26.4305 19.1057 26.2196V24.8303C19.1057 24.5295 18.8621 24.2853 18.5607 24.2853C18.2592 24.2853 18.0156 24.5295 18.0156 24.8303V25.8745L15.6116 27.0093L13.2233 25.9193V24.8303C13.2233 24.5283 12.9797 24.2847 12.6783 24.2847Z" fill="white"/>
<path d="M28.3126 19.0664C28.4913 18.8244 28.4396 18.4832 28.1976 18.3044L24.5002 15.5783C24.2577 15.3995 23.917 15.4507 23.7383 15.6933C23.5595 15.9352 23.6113 16.2765 23.8533 16.4552L27.5506 19.1814C27.6482 19.2533 27.7616 19.2877 27.8738 19.2877C28.0406 19.2882 28.2058 19.2113 28.3126 19.0664Z" fill="white"/>
<path d="M6.64856 3.77139C6.74612 3.84334 6.8595 3.87767 6.97174 3.87767C7.13903 3.87767 7.30364 3.80083 7.41105 3.65587C7.5898 3.41389 7.53804 3.07267 7.29606 2.89392L3.51527 0.10667C3.27329 -0.0726208 2.93208 -0.0203223 2.75332 0.221659C2.57457 0.464177 2.62579 0.805392 2.86831 0.984146L6.64856 3.77139Z" fill="white"/>
<path d="M6.82025 15.3904L2.86889 18.304C2.62691 18.4827 2.57515 18.824 2.7539 19.0659C2.86071 19.2109 3.02585 19.2877 3.19321 19.2877C3.30545 19.2877 3.41883 19.2534 3.51639 19.1815L7.46775 16.2678C7.70973 16.0891 7.76149 15.7479 7.58274 15.5059C7.40284 15.2634 7.06223 15.2121 6.82025 15.3904Z" fill="white"/>
<path d="M24.0146 2.71397C23.7727 2.89273 23.7209 3.23394 23.8997 3.47592C24.0065 3.62089 24.1716 3.69772 24.339 3.69772C24.4512 3.69772 24.5646 3.66286 24.6621 3.59145L28.1987 0.984098C28.4407 0.805344 28.4925 0.464129 28.3137 0.222148C28.135 -0.0198339 27.7943 -0.0721325 27.5518 0.107158L24.0146 2.71397Z" fill="white"/>
<path d="M30.4551 9.09961H26.2863C25.9849 9.09961 25.7412 9.3438 25.7412 9.64466C25.7412 9.94551 25.9848 10.1897 26.2863 10.1897H30.4551C30.7564 10.1897 31.0001 9.94551 31.0001 9.64466C31.0001 9.3438 30.7564 9.09961 30.4551 9.09961Z" fill="white"/>
<path d="M5.39185 9.64466C5.39185 9.3438 5.14826 9.09961 4.84681 9.09961H0.545045C0.243658 9.09961 0 9.3438 0 9.64466C0 9.94551 0.243591 10.1897 0.545045 10.1897H4.84687C5.14766 10.1896 5.39185 9.94551 5.39185 9.64466Z" fill="white"/>
</svg>
