<?xml version="1.0" encoding="iso-8859-1"?>
<!-- Generator: Adobe Illustrator 19.0.0, SVG Export Plug-In . SVG Version: 6.00 Build 0)  -->
<svg version="1.1" id="Capa_1" xmlns="http://www.w3.org/2000/svg" xmlns:xlink="http://www.w3.org/1999/xlink" x="0px" y="0px"
	 viewBox="0 0 448 448" style="enable-background:new 0 0 448 448;" xml:space="preserve">
<g>
	<g>
		<path d="M405.68,269.297c1.141-3.176,4.156-5.297,7.531-5.297H432v-16h-18.789c-3.375,0-6.391-2.121-7.531-5.297
			c-0.477-1.34-1.016-2.645-1.617-3.914c-1.461-3.059-0.836-6.703,1.563-9.098l13.289-13.289l-11.313-11.316l-13.297,13.289
			c-2.398,2.398-6.047,3.012-9.102,1.566c-1.25-0.598-2.539-1.141-3.867-1.609c-3.195-1.129-5.336-4.152-5.336-7.543V192h-16v18.789
			c0,3.391-2.141,6.414-5.336,7.543c-1.328,0.469-2.617,1.012-3.867,1.609c-3.07,1.461-6.719,0.828-9.102-1.566l-13.297-13.289
			l-11.313,11.316l13.289,13.289c2.398,2.395,3.023,6.039,1.563,9.098c-0.602,1.27-1.141,2.574-1.617,3.914
			c-1.141,3.176-4.156,5.297-7.531,5.297H304v16h18.789c3.375,0,6.391,2.121,7.531,5.297c0.477,1.34,1.016,2.645,1.617,3.914
			c1.461,3.059,0.836,6.703-1.563,9.098l-13.289,13.289l11.313,11.316l13.289-13.289c2.391-2.395,6.039-3.016,9.086-1.57
			c1.266,0.598,2.555,1.141,3.891,1.613c3.195,1.129,5.336,4.152,5.336,7.543V320h16v-18.789c0-3.391,2.141-6.414,5.336-7.543
			c1.336-0.473,2.625-1.016,3.891-1.613c3.047-1.445,6.695-0.824,9.086,1.57l13.289,13.289l11.313-11.316l-13.289-13.289
			c-2.398-2.395-3.023-6.039-1.563-9.098C404.664,271.941,405.203,270.637,405.68,269.297z M368,272c-8.82,0-16-7.176-16-16
			s7.18-16,16-16s16,7.176,16,16S376.82,272,368,272z"/>
	</g>
</g>
<g>
	<g>
		<path d="M229.102,342.004c0.914-3.535,4.102-6.004,7.75-6.004H272v-32h-35.148c-3.648,0-6.836-2.469-7.75-6.004
			c-2.055-7.973-5.203-15.582-9.359-22.621c-1.852-3.141-1.344-7.145,1.234-9.723l24.852-24.848l-22.633-22.629l-24.852,24.848
			c-2.57,2.586-6.586,3.098-9.727,1.23c-7.031-4.152-14.641-7.301-22.617-9.359c-3.531-0.91-6-4.098-6-7.746V192h-32v35.148
			c0,3.648-2.469,6.836-6,7.746c-7.977,2.059-15.586,5.207-22.617,9.359c-3.133,1.867-7.148,1.355-9.727-1.23l-24.852-24.848
			l-22.633,22.629l24.852,24.848c2.578,2.578,3.086,6.582,1.234,9.723c-4.156,7.039-7.305,14.648-9.359,22.621
			c-0.914,3.535-4.102,6.004-7.75,6.004H16v32h35.148c3.648,0,6.836,2.469,7.75,6.004c2.055,7.973,5.203,15.582,9.359,22.621
			c1.852,3.141,1.344,7.145-1.234,9.723l-24.852,24.848l22.633,22.629l24.852-24.848c2.578-2.578,6.594-3.086,9.727-1.23
			c7.031,4.152,14.641,7.301,22.617,9.359c3.531,0.91,6,4.098,6,7.746V448h32v-35.148c0-3.648,2.469-6.836,6-7.746
			c7.977-2.059,15.586-5.207,22.617-9.359c3.141-1.855,7.156-1.348,9.727,1.23l24.852,24.848l22.633-22.629l-24.852-24.848
			c-2.578-2.578-3.086-6.582-1.234-9.723C223.898,357.586,227.047,349.977,229.102,342.004z M144,368c-26.469,0-48-21.531-48-48
			s21.531-48,48-48s48,21.531,48,48S170.469,368,144,368z"/>
	</g>
</g>
<g>
	<g>
		<path d="M192,136v-16h142.467C332.775,79.458,318.11,15.302,272,8.619V80h-16V0h-32v80h-16V8.619
			C161.89,15.302,147.225,79.458,145.533,120H176v16h-64v16h256v-16H192z"/>
	</g>
</g>
<g>
</g>
<g>
</g>
<g>
</g>
<g>
</g>
<g>
</g>
<g>
</g>
<g>
</g>
<g>
</g>
<g>
</g>
<g>
</g>
<g>
</g>
<g>
</g>
<g>
</g>
<g>
</g>
<g>
</g>
</svg>
