<svg width="40" height="40" viewBox="0 0 40 40" fill="none" xmlns="http://www.w3.org/2000/svg">
<path d="M35.0846 0H4.91558C2.20511 0 0 2.20511 0 4.91545V35.0846C0 37.795 2.20511 40 4.91545 40C5.36491 40 5.72944 39.6355 5.72944 39.186C5.72944 38.7365 5.36491 38.372 4.91545 38.372C3.10281 38.3721 1.62799 36.8973 1.62799 35.0846V4.91545C1.62799 3.10281 3.10281 1.62799 4.91558 1.62799H35.0846C36.8973 1.62799 38.372 3.10281 38.372 4.91545V35.0846C38.372 36.8973 36.8973 38.372 35.0846 38.372H13.6238C13.1744 38.372 12.8098 38.7365 12.8098 39.186C12.8098 39.6355 13.1744 40 13.6238 40H35.0846C37.795 40 40 37.7949 40 35.0846V4.91545C40.0001 2.20511 37.795 0 35.0846 0Z" fill="white"/>
<path d="M20.0002 7.05371C19.5507 7.05371 19.1862 7.41825 19.1862 7.86771V20.0003C19.1862 20.2161 19.2719 20.4232 19.4245 20.5759L32.9911 34.1425C33.15 34.3014 33.3584 34.3809 33.5666 34.3809C33.7749 34.3809 33.9832 34.3014 34.1421 34.1425C34.4601 33.8247 34.4601 33.3093 34.1421 32.9914L20.814 19.6632V7.86771C20.8141 7.41811 20.4496 7.05371 20.0002 7.05371Z" fill="white"/>
</svg>
