<svg width="40" height="40" viewBox="0 0 40 40" fill="none" xmlns="http://www.w3.org/2000/svg">
<path d="M34.1447 5.85122C26.3459 -1.95041 13.656 -1.95041 5.85723 5.85122C3.12095 8.58843 1.24924 12.0272 0.444241 15.796C-0.339452 19.4656 -0.0827437 23.2676 1.18655 26.7907C1.33906 27.2138 1.80566 27.4331 2.22844 27.2807C2.6515 27.1281 2.87076 26.6615 2.71825 26.2384C1.55208 23.0015 1.31626 19.5083 2.03646 16.1361C2.77551 12.6756 4.49486 9.51722 7.00848 7.00273C14.1726 -0.163823 25.8293 -0.163823 32.9934 7.00273C36.4051 10.4157 38.315 14.9524 38.371 19.7774C38.427 24.5936 36.6328 29.1665 33.319 32.6536C33.2798 32.6949 33.241 32.7364 33.2022 32.7779C33.1336 32.8514 33.065 32.9249 32.9934 32.9966C25.8293 40.1631 14.1726 40.1631 7.00848 32.9966C6.97036 32.9585 6.93318 32.9196 6.89641 32.8808C6.89451 32.8056 6.89288 32.7315 6.89288 32.6585C6.89288 32.4945 6.896 32.3313 6.90197 32.1685C6.90401 32.1141 6.90808 32.0602 6.91079 32.0059C6.91608 31.8977 6.9211 31.7896 6.92897 31.6819C6.93372 31.6177 6.94064 31.5542 6.94634 31.4903C6.95489 31.3932 6.96289 31.2962 6.97348 31.1997C6.98094 31.1316 6.99071 31.064 6.99926 30.9961C7.01079 30.9045 7.02178 30.8126 7.03535 30.7214C7.04566 30.6519 7.05787 30.5831 7.06927 30.514C7.08379 30.4251 7.0979 30.3362 7.11431 30.2478C7.1272 30.1779 7.14199 30.1087 7.1561 30.0392C7.17361 29.9525 7.19084 29.8656 7.2101 29.7794C7.22571 29.7095 7.24308 29.6401 7.25976 29.5706C7.28012 29.4857 7.30033 29.4009 7.32231 29.3168C7.34063 29.247 7.36044 29.1778 7.37971 29.1084C7.40291 29.0253 7.42597 28.9421 7.4508 28.8596C7.47156 28.7904 7.49381 28.7217 7.51579 28.653C7.54184 28.5715 7.5679 28.4898 7.59544 28.4089C7.61878 28.3406 7.6432 28.2727 7.66762 28.2049C7.69652 28.1245 7.72556 28.0442 7.75595 27.9644C7.78173 27.8969 7.80846 27.8301 7.83532 27.7632C7.86694 27.6844 7.89882 27.6055 7.93193 27.5273C7.96015 27.4608 7.98918 27.3948 8.01849 27.3289C8.05282 27.2514 8.08755 27.1742 8.12337 27.0975C8.1539 27.0322 8.18511 26.9673 8.21672 26.9026C8.2539 26.8264 8.29148 26.7504 8.33001 26.6751C8.36271 26.6113 8.39596 26.5478 8.42974 26.4845C8.46963 26.4096 8.5102 26.335 8.55158 26.2607C8.58645 26.1983 8.62173 26.1361 8.65755 26.0744C8.70015 26.0009 8.74343 25.9279 8.78753 25.8552C8.82457 25.7941 8.86202 25.7333 8.90001 25.6727C8.94533 25.6008 8.99132 25.5293 9.038 25.4583C9.07707 25.3987 9.11642 25.3394 9.15645 25.2805C9.20434 25.2099 9.25332 25.1401 9.30271 25.0705C9.34382 25.0126 9.38493 24.9547 9.42699 24.8976C9.4776 24.8286 9.5293 24.7604 9.58126 24.6925C9.62427 24.6363 9.66715 24.5801 9.71111 24.5246C9.76443 24.4572 9.81898 24.3905 9.87366 24.3241C9.9183 24.2699 9.96293 24.2156 10.0085 24.162C10.0647 24.096 10.1221 24.031 10.1796 23.9661C10.226 23.9137 10.2722 23.8612 10.3194 23.8096C10.3783 23.7453 10.4384 23.6822 10.4986 23.619C10.5466 23.5686 10.5944 23.5179 10.6432 23.4681C10.705 23.4054 10.7681 23.3441 10.831 23.2824C10.8804 23.2343 10.9294 23.1855 10.9796 23.138C11.0444 23.0767 11.1108 23.0168 11.1769 22.9568C11.2273 22.9111 11.2771 22.8648 11.3283 22.8197C11.3965 22.7596 11.4666 22.7013 11.5362 22.6425C11.5872 22.5995 11.6376 22.5558 11.6893 22.5134C11.7614 22.4545 11.8352 22.3974 11.9087 22.3398C11.96 22.2998 12.0105 22.2588 12.0623 22.2194C12.1398 22.1606 12.2189 22.1039 12.2979 22.0469C12.3477 22.0108 12.3965 21.9739 12.447 21.9385C12.5341 21.8773 12.6232 21.8182 12.7121 21.7589C12.7559 21.7297 12.7988 21.6994 12.8429 21.6707C12.9588 21.5953 13.0767 21.5225 13.1954 21.4505C13.2138 21.4394 13.2318 21.4274 13.2503 21.4163C13.3877 21.3341 13.5269 21.2543 13.6677 21.1766C13.7159 21.1502 13.7654 21.1253 13.8141 21.0994C13.9076 21.0494 14.0008 20.9991 14.0959 20.9513C14.1568 20.9206 14.2192 20.8919 14.2807 20.8621C14.3583 20.8245 14.4357 20.7865 14.5142 20.7503C15.9897 22.1602 17.9581 22.9585 20.0011 22.9585C22.0442 22.9585 24.0127 22.1601 25.4882 20.75C28.3686 22.0836 30.726 24.4763 32.0059 27.386C32.1869 27.7976 32.6671 27.9847 33.0789 27.8035C33.4904 27.6223 33.6772 27.1417 33.4961 26.7302C32.0962 23.5474 29.6589 21.004 26.5739 19.4686C27.469 18.1552 27.9533 16.6042 27.9533 15.0037C27.9533 10.6174 24.3859 7.04888 20.0011 7.04888C19.5516 7.04888 19.1871 7.41358 19.1871 7.86324C19.1871 8.31291 19.5516 8.67761 20.0011 8.67761C23.4883 8.67761 26.3251 11.5155 26.3251 15.0037C26.3251 16.5635 25.7456 18.0655 24.6935 19.2326C24.6934 19.2327 24.6933 19.2329 24.6931 19.233C23.4918 20.5656 21.7817 21.3299 20.001 21.3299C18.2203 21.3299 16.5101 20.5656 15.3089 19.233C15.3088 19.2327 15.3085 19.2326 15.3082 19.2325C14.2563 18.0649 13.6769 16.5634 13.6769 15.0039C13.6769 13.3013 14.3433 11.7041 15.5533 10.5067C15.8729 10.1903 15.8756 9.67466 15.5594 9.35502C15.2432 9.03511 14.7278 9.03267 14.4081 9.34878C12.8867 10.854 12.0488 12.8624 12.0488 15.0033C12.0488 16.6022 12.5318 18.1521 13.4254 19.4648C13.4174 19.4688 13.4096 19.4731 13.4018 19.4772C13.3383 19.5089 13.2763 19.5426 13.2133 19.575C13.1168 19.625 13.0201 19.6747 12.925 19.7266C12.8577 19.7633 12.7919 19.8018 12.7253 19.8394C12.6364 19.8898 12.5474 19.9399 12.4597 19.9919C12.3918 20.0323 12.3249 20.0741 12.2576 20.1155C12.1734 20.1674 12.0893 20.2191 12.0064 20.2724C11.9387 20.316 11.8722 20.3608 11.8053 20.4053C11.7249 20.4589 11.6446 20.5128 11.5653 20.5679C11.4987 20.6143 11.4329 20.6617 11.3671 20.709C11.2898 20.7648 11.2127 20.8209 11.1366 20.878C11.0713 20.927 11.0069 20.9767 10.9426 21.0266C10.8679 21.0846 10.7938 21.143 10.7206 21.2023C10.6571 21.2536 10.5941 21.3056 10.5314 21.3578C10.4594 21.4181 10.3879 21.479 10.3171 21.5406C10.2556 21.594 10.1945 21.6477 10.134 21.7022C10.0642 21.765 9.99523 21.8285 9.92671 21.8926C9.86755 21.9478 9.80853 22.0032 9.75019 22.0595C9.68248 22.125 9.61586 22.1913 9.54938 22.258C9.49266 22.3148 9.43595 22.3716 9.38032 22.4293C9.31452 22.4975 9.24993 22.567 9.18548 22.6365C9.13162 22.6946 9.07735 22.7524 9.02443 22.8115C8.95998 22.8831 8.8973 22.9563 8.83434 23.0292C8.78373 23.0878 8.73272 23.1459 8.68306 23.2052C8.61915 23.2816 8.55728 23.3595 8.495 23.4372C8.44874 23.495 8.40152 23.552 8.35607 23.6105C8.29067 23.6946 8.22744 23.7804 8.16394 23.8659C8.12405 23.9197 8.08308 23.9725 8.044 24.0268C7.96368 24.1381 7.88593 24.251 7.80886 24.3645C7.78865 24.3943 7.76721 24.4234 7.74713 24.4534C7.6512 24.5967 7.55799 24.7416 7.46722 24.8882C7.43588 24.9389 7.40643 24.9906 7.37577 25.0415C7.31702 25.1391 7.258 25.2365 7.20142 25.3355C7.16614 25.3972 7.13277 25.4601 7.09844 25.5224C7.04892 25.6119 6.99912 25.7012 6.95163 25.7919C6.91636 25.8591 6.88298 25.9271 6.84865 25.9948C6.80442 26.0822 6.76005 26.1695 6.71758 26.2579C6.6838 26.3282 6.65164 26.3993 6.61894 26.47C6.57878 26.5573 6.53848 26.6444 6.49995 26.7325C6.4682 26.8051 6.43781 26.8784 6.40728 26.9516C6.37051 27.0394 6.33401 27.1272 6.29901 27.2157C6.26956 27.2901 6.24134 27.3649 6.21312 27.4396C6.17974 27.5284 6.14677 27.6173 6.11502 27.7067C6.08816 27.7826 6.06211 27.8589 6.03633 27.9353C6.00607 28.025 5.97663 28.115 5.94814 28.2055C5.92385 28.2825 5.90038 28.3597 5.87731 28.4371C5.85018 28.5284 5.82399 28.6201 5.79862 28.7121C5.77718 28.7897 5.75615 28.8675 5.73593 28.9457C5.71192 29.0386 5.68912 29.132 5.66687 29.2257C5.64828 29.3039 5.62983 29.3819 5.6126 29.4603C5.5917 29.5552 5.5723 29.6506 5.55331 29.7462C5.5377 29.8244 5.52183 29.9026 5.50745 29.9811C5.48967 30.0786 5.47366 30.1766 5.45779 30.2747C5.4453 30.3521 5.43214 30.4293 5.42088 30.5069C5.40609 30.6082 5.39361 30.71 5.38085 30.8118C5.37149 30.8873 5.36118 30.9626 5.3529 31.0383C5.34124 31.145 5.33228 31.2524 5.32292 31.3597C5.31668 31.4313 5.30922 31.5025 5.30406 31.5744C5.29538 31.6943 5.28968 31.8147 5.28384 31.9352C5.28099 31.9951 5.27652 32.0545 5.27435 32.1145C5.26783 32.2953 5.26417 32.4768 5.26417 32.6589C5.26417 32.8556 5.27082 33.0415 5.27882 33.2469C5.28072 33.2944 5.28737 33.3405 5.29687 33.3856C5.29768 33.3891 5.29809 33.3926 5.2989 33.3962C5.30894 33.4406 5.32305 33.4832 5.34001 33.5244C5.34164 33.5285 5.34314 33.5326 5.3449 33.5367C5.3624 33.5774 5.3833 33.6162 5.40691 33.6531C5.40989 33.6577 5.41274 33.6623 5.41572 33.6668C5.44001 33.7031 5.46701 33.7371 5.49645 33.7689C5.49863 33.7712 5.50012 33.774 5.50229 33.7764L5.60975 33.8908C5.69089 33.9776 5.77202 34.0642 5.85669 34.1488C9.75616 38.0496 14.8782 40 20.0005 40C25.1227 40 30.2448 38.0496 34.1443 34.1488C34.2289 34.0642 34.3101 33.9775 34.3912 33.8908L34.4987 33.7764C38.1063 29.9799 40.0595 25.002 39.9986 19.7591C39.938 14.5057 37.8588 9.56662 34.1447 5.85122Z" fill="white"/>
</svg>
